<svg width="1280" height="640" viewBox="0 0 1280 640" fill="none" xmlns="http://www.w3.org/2000/svg">
  <defs>
    <linearGradient id="bg" x1="112" y1="72" x2="1160" y2="580" gradientUnits="userSpaceOnUse">
      <stop stop-color="#0D1022"/>
      <stop offset="0.55" stop-color="#171B35"/>
      <stop offset="1" stop-color="#241D60"/>
    </linearGradient>
    <linearGradient id="glass" x1="316" y1="120" x2="1004" y2="500" gradientUnits="userSpaceOnUse">
      <stop stop-color="rgba(255,255,255,0.24)"/>
      <stop offset="1" stop-color="rgba(255,255,255,0.06)"/>
    </linearGradient>
    <linearGradient id="purple" x1="0" y1="0" x2="1" y2="1">
      <stop stop-color="#280CFF"/>
      <stop offset="0.52" stop-color="#5D48FF"/>
      <stop offset="1" stop-color="#9386FF"/>
    </linearGradient>
    <radialGradient id="glowA" cx="0" cy="0" r="1" gradientUnits="userSpaceOnUse" gradientTransform="translate(1030 118) rotate(125) scale(290 290)">
      <stop stop-color="#CAC3FF" stop-opacity="0.34"/>
      <stop offset="1" stop-color="#CAC3FF" stop-opacity="0"/>
    </radialGradient>
    <radialGradient id="glowB" cx="0" cy="0" r="1" gradientUnits="userSpaceOnUse" gradientTransform="translate(214 526) rotate(21) scale(320 220)">
      <stop stop-color="#280CFF" stop-opacity="0.48"/>
      <stop offset="1" stop-color="#280CFF" stop-opacity="0"/>
    </radialGradient>
    <filter id="blur" x="0" y="0" width="1280" height="640" filterUnits="userSpaceOnUse">
      <feGaussianBlur stdDeviation="40"/>
    </filter>
  </defs>

  <rect width="1280" height="640" rx="44" fill="url(#bg)"/>
  <g filter="url(#blur)">
    <circle cx="1030" cy="118" r="190" fill="url(#glowA)"/>
    <circle cx="214" cy="526" r="180" fill="url(#glowB)"/>
  </g>

  <rect x="52" y="52" width="1176" height="536" rx="36" fill="rgba(255,255,255,0.03)" stroke="rgba(255,255,255,0.10)"/>

  <g>
    <rect x="92" y="110" width="178" height="418" rx="28" fill="rgba(11,15,34,0.72)" stroke="rgba(255,255,255,0.10)"/>
    <text x="124" y="166" fill="#CAC3FF" font-size="18" font-family="SF Pro Display, PingFang SC, sans-serif" letter-spacing="4">MoyuDIT</text>
    <text x="124" y="214" fill="white" font-size="42" font-weight="700" font-family="SF Pro Display, PingFang SC, sans-serif">摄影导入台</text>
    <text x="124" y="252" fill="rgba(255,255,255,0.74)" font-size="20" font-family="SF Pro Display, PingFang SC, sans-serif">摸鱼开发</text>

    <rect x="122" y="310" width="118" height="50" rx="18" fill="url(#purple)"/>
    <text x="151" y="342" fill="white" font-size="18" font-weight="700" font-family="SF Pro Display, PingFang SC, sans-serif">开始导入</text>

    <rect x="122" y="382" width="118" height="50" rx="18" fill="rgba(255,255,255,0.08)" stroke="rgba(255,255,255,0.10)"/>
    <text x="151" y="414" fill="white" font-size="18" font-family="SF Pro Display, PingFang SC, sans-serif">读取素材</text>
  </g>

  <g>
    <rect x="316" y="92" width="892" height="456" rx="32" fill="rgba(255,255,255,0.06)" stroke="rgba(255,255,255,0.12)"/>
    <rect x="348" y="124" width="828" height="72" rx="24" fill="rgba(255,255,255,0.07)" stroke="rgba(255,255,255,0.10)"/>
    <text x="386" y="168" fill="#F8F8FF" font-size="24" font-weight="700" font-family="SF Pro Display, PingFang SC, sans-serif">安全导入摄影素材</text>
    <text x="855" y="168" fill="rgba(255,255,255,0.72)" font-size="18" font-family="SF Pro Display, PingFang SC, sans-serif">双目标备份 · 哈希校验 · 断点恢复</text>

    <rect x="348" y="224" width="350" height="286" rx="26" fill="rgba(11,15,34,0.54)" stroke="rgba(255,255,255,0.10)"/>
    <text x="378" y="268" fill="white" font-size="22" font-weight="700" font-family="SF Pro Display, PingFang SC, sans-serif">导入概览</text>
    <rect x="378" y="296" width="136" height="84" rx="20" fill="rgba(255,255,255,0.08)"/>
    <rect x="530" y="296" width="136" height="84" rx="20" fill="rgba(93,72,255,0.24)"/>
    <rect x="378" y="394" width="136" height="84" rx="20" fill="rgba(255,255,255,0.08)"/>
    <rect x="530" y="394" width="136" height="84" rx="20" fill="rgba(255,255,255,0.08)"/>
    <text x="406" y="328" fill="rgba(255,255,255,0.62)" font-size="16" font-family="SF Pro Display, PingFang SC, sans-serif">来源</text>
    <text x="406" y="357" fill="white" font-size="28" font-weight="700" font-family="SF Pro Display, PingFang SC, sans-serif">SD 卡</text>
    <text x="560" y="328" fill="rgba(255,255,255,0.62)" font-size="16" font-family="SF Pro Display, PingFang SC, sans-serif">计划导入</text>
    <text x="560" y="357" fill="white" font-size="28" font-weight="700" font-family="SF Pro Display, PingFang SC, sans-serif">1,248</text>
    <text x="406" y="426" fill="rgba(255,255,255,0.62)" font-size="16" font-family="SF Pro Display, PingFang SC, sans-serif">主目录</text>
    <text x="406" y="455" fill="white" font-size="24" font-weight="700" font-family="SF Pro Display, PingFang SC, sans-serif">2026/03/27</text>
    <text x="560" y="426" fill="rgba(255,255,255,0.62)" font-size="16" font-family="SF Pro Display, PingFang SC, sans-serif">校验</text>
    <text x="560" y="455" fill="white" font-size="24" font-weight="700" font-family="SF Pro Display, PingFang SC, sans-serif">MD5</text>

    <rect x="726" y="224" width="450" height="286" rx="26" fill="rgba(11,15,34,0.54)" stroke="rgba(255,255,255,0.10)"/>
    <text x="758" y="268" fill="white" font-size="22" font-weight="700" font-family="SF Pro Display, PingFang SC, sans-serif">素材预览</text>
    <g opacity="0.98">
      <rect x="758" y="296" width="120" height="92" rx="18" fill="rgba(255,255,255,0.10)"/>
      <rect x="894" y="296" width="120" height="92" rx="18" fill="rgba(93,72,255,0.28)"/>
      <rect x="1030" y="296" width="120" height="92" rx="18" fill="rgba(255,255,255,0.10)"/>
      <rect x="758" y="404" width="120" height="92" rx="18" fill="rgba(255,255,255,0.10)"/>
      <rect x="894" y="404" width="120" height="92" rx="18" fill="rgba(255,255,255,0.10)"/>
      <rect x="1030" y="404" width="120" height="92" rx="18" fill="rgba(255,255,255,0.10)"/>
      <circle cx="954" cy="342" r="18" fill="white"/>
      <path d="M946 342.5L952 348L963 335" stroke="#280CFF" stroke-width="4" stroke-linecap="round" stroke-linejoin="round"/>
    </g>
  </g>
</svg>
